<svg data-v-423bf9ae="" xmlns="http://www.w3.org/2000/svg" viewBox="0 0 488 90" class="iconLeft"><!----><!----><!----><g data-v-423bf9ae="" id="b21d8df5-9e25-420a-915a-059b8c0d43be" fill="white" transform="matrix(5.831435203552246,0,0,5.831435203552246,190.21340942382812,12.539862632751465)"><path d="M2.72 10.50L2.72 6.73L4.80 6.73C7.31 6.73 8.62 5.56 8.62 3.53C8.62 1.16 6.72 0.42 4.69 0.42L1.06 0.42L1.06 10.50ZM2.72 1.88L4.73 1.88C6.06 1.88 6.93 2.30 6.93 3.57C6.93 4.59 6.29 5.28 4.76 5.28L2.72 5.28ZM15.93 7.28C15.95 7.21 15.95 6.85 15.95 6.66C15.95 4.44 14.64 3.01 12.57 3.01C10.61 3.01 9.14 4.35 9.14 6.86C9.14 9.37 10.61 10.71 12.57 10.71C14.22 10.71 15.39 9.93 15.85 8.37L14.38 8.06C14.17 8.93 13.47 9.42 12.67 9.42C11.66 9.42 10.79 8.76 10.70 7.28ZM12.56 4.31C13.61 4.31 14.28 5.05 14.34 6.13L10.74 6.13C10.92 4.89 11.75 4.31 12.56 4.31ZM18.80 10.50L18.80 6.82C18.80 5.40 19.40 4.47 20.61 4.47C21.04 4.47 21.32 4.59 21.60 4.77L21.95 3.39C21.62 3.12 21.22 3.01 20.66 3.01C19.71 3.01 19.14 3.50 18.68 4.48L18.68 3.22L17.25 3.22L17.25 10.50ZM22.48 8.40C22.61 9.83 23.72 10.71 25.49 10.71C27.05 10.71 28.46 10.04 28.46 8.43C28.46 7.03 27.50 6.52 26.63 6.30L24.77 5.84C24.36 5.74 24.00 5.52 24.00 5.11C24.00 4.56 24.51 4.26 25.40 4.26C26.18 4.26 26.71 4.59 26.82 5.33L28.22 5.11C28.14 3.92 27.17 3.01 25.44 3.01C23.94 3.01 22.60 3.65 22.60 5.22C22.60 6.43 23.45 6.96 24.40 7.20L26.17 7.64C26.75 7.80 27.01 8.05 27.01 8.53C27.01 9.25 26.19 9.46 25.54 9.46C24.47 9.46 24.00 8.90 23.90 8.18L22.48 8.40ZM36.12 7.28C36.13 7.21 36.13 6.85 36.13 6.66C36.13 4.44 34.83 3.01 32.76 3.01C30.80 3.01 29.33 4.35 29.33 6.86C29.33 9.37 30.80 10.71 32.76 10.71C34.41 10.71 35.57 9.93 36.04 8.37L34.57 8.06C34.36 8.93 33.66 9.42 32.86 9.42C31.85 9.42 30.98 8.76 30.88 7.28ZM32.75 4.31C33.80 4.31 34.47 5.05 34.52 6.13L30.93 6.13C31.11 4.89 31.93 4.31 32.75 4.31ZM42.08 3.22L42.08 7.18C42.08 8.64 41.37 9.41 40.36 9.41C39.37 9.41 38.99 8.75 38.99 7.63L38.99 3.22L37.44 3.22L37.44 7.69C37.44 9.42 37.98 10.71 40.00 10.71C40.95 10.71 41.68 10.28 42.21 9.45L42.21 10.50L43.64 10.50L43.64 3.22ZM44.93 8.40C45.05 9.83 46.16 10.71 47.94 10.71C49.49 10.71 50.90 10.04 50.90 8.43C50.90 7.03 49.94 6.52 49.07 6.30L47.21 5.84C46.80 5.74 46.44 5.52 46.44 5.11C46.44 4.56 46.96 4.26 47.84 4.26C48.62 4.26 49.15 4.59 49.27 5.33L50.67 5.11C50.58 3.92 49.62 3.01 47.88 3.01C46.38 3.01 45.04 3.65 45.04 5.22C45.04 6.43 45.89 6.96 46.84 7.20L48.61 7.64C49.20 7.80 49.45 8.05 49.45 8.53C49.45 9.25 48.64 9.46 47.98 9.46C46.91 9.46 46.44 8.90 46.34 8.18L44.93 8.40Z"></path></g><!----><g data-v-423bf9ae="" id="d27d6930-56f3-4dec-8cad-0b1b1006e302" transform="matrix(1.9598503112792969,0,0,1.9598503112792969,-8.992515563964844,-52.953453063964844)" stroke="none" fill="white"><path d="M75.195 72.96a2.716 2.716 0 0 1-2.074-4.467L88.73 50 73.122 31.507a2.716 2.716 0 0 1 4.151-3.504L94.36 48.248a2.715 2.715 0 0 1 0 3.503L77.272 71.995a2.708 2.708 0 0 1-2.077.965zM24.805 72.96a2.71 2.71 0 0 1-2.076-.964L5.641 51.752a2.715 2.715 0 0 1 0-3.503l17.088-20.245a2.716 2.716 0 0 1 4.151 3.503L11.269 50.001l15.609 18.492a2.716 2.716 0 0 1-2.073 4.467zM37.325 72.96a2.715 2.715 0 0 1-2.299-4.156L60.37 28.315a2.715 2.715 0 1 1 4.604 2.881L39.63 71.685a2.714 2.714 0 0 1-2.305 1.275z"></path></g><!----></svg>